<svg width="32" height="30" viewBox="0 0 32 30" fill="none" xmlns="http://www.w3.org/2000/svg">
<path id="Vector" d="M30.8345 3.61957L27.5736 0.391304C27.3453 0.163043 27.0193 0.0326087 26.6932 0.0652174C26.3671 0.0978261 26.0736 0.26087 25.878 0.521739L23.3345 4.1087L21.9323 2.70652C20.1714 0.978261 17.8562 0 15.378 0C12.8997 0 10.5845 0.978261 8.8236 2.70652L7.84534 3.68478C7.16056 4.36957 6.89969 5.34783 7.09534 6.26087L4.84534 8.51087C2.30186 11.087 0.834473 14.6413 0.834473 18.2935L0.89969 28.8913C0.89969 29.5109 1.42143 30 2.04099 30H12.6062C16.291 30 19.7149 28.5652 22.3236 25.9891L24.6062 23.7065C24.8019 23.7391 25.0301 23.7717 25.2258 23.7717C25.9758 23.7717 26.6606 23.4783 27.1823 22.9565L28.1606 21.9783C31.7801 18.3587 31.7801 12.4891 28.1606 8.86957L27.0845 7.8587L30.6714 5.31522C30.9323 5.11956 31.128 4.82609 31.1606 4.5C31.1932 4.17391 31.0627 3.84783 30.8345 3.61957ZM20.6932 24.3913C18.541 26.5761 15.6388 27.75 12.5736 27.75H3.14969L3.11708 18.2935C3.11708 15.2609 4.3236 12.2609 6.47578 10.1087L8.4323 8.15217L22.6823 22.4022L20.6932 24.3913ZM25.454 6.26087L24.9323 5.73913L26.9214 2.93478L28.2584 4.27174L25.454 6.26087Z" fill="#49A986"/>
</svg>
