<svg width="21" height="21" viewBox="0 0 21 21" fill="none" xmlns="http://www.w3.org/2000/svg">
<path d="M20.7793 2.57173L18.6054 0.419561C18.4532 0.267387 18.2358 0.180431 18.0184 0.20217C17.801 0.223909 17.6054 0.332604 17.475 0.506517L15.7793 2.89782L14.8445 1.96304C13.6706 0.810865 12.1271 0.158691 10.4749 0.158691C8.82277 0.158691 7.2793 0.810865 6.10538 1.96304L5.45321 2.61521C4.99669 3.07173 4.82278 3.72391 4.95321 4.3326L3.45321 5.8326C1.75756 7.55 0.779297 9.91956 0.779297 12.3543L0.822775 19.4196C0.822775 19.8326 1.1706 20.1587 1.58364 20.1587H8.62712C11.0836 20.1587 13.3663 19.2022 15.1054 17.4848L16.6271 15.963C16.7576 15.9848 16.9097 16.0065 17.0402 16.0065C17.5402 16.0065 17.9967 15.8109 18.3445 15.463L18.9967 14.8109C21.4097 12.3978 21.4097 8.48478 18.9967 6.07173L18.2793 5.39782L20.6706 3.70217C20.8445 3.57173 20.9749 3.37608 20.9967 3.15869C21.0184 2.9413 20.9315 2.72391 20.7793 2.57173ZM14.0184 16.4196C12.5836 17.8761 10.6489 18.6587 8.60538 18.6587H2.32278L2.30104 12.3543C2.30104 10.3326 3.10538 8.3326 4.54017 6.89782L5.84451 5.59347L15.3445 15.0935L14.0184 16.4196ZM17.1923 4.3326L16.8445 3.98478L18.1706 2.11521L19.0619 3.00652L17.1923 4.3326Z" fill="#E0F0E5"/>
</svg>
