<svg width="62" height="60" viewBox="0 0 62 60" fill="none" xmlns="http://www.w3.org/2000/svg">
<path d="M30.2371 20.5897L21.5261 18.4119C20.6129 18.2012 19.6294 18.0607 18.6459 18.0607C16.5384 18.0607 14.4308 18.6227 12.6043 19.7467L10.2861 21.1517C9.93484 21.0112 9.58358 20.8707 9.23233 20.8707C8.81083 20.8707 8.38933 21.0112 7.96783 21.2219L6.98433 21.8542C5.15782 22.9782 3.89332 24.6642 3.33132 26.7717C2.83957 28.8089 3.12057 30.9867 4.24457 32.8132L4.80657 33.7967L1.50481 35.0612C1.22381 35.2017 1.01306 35.4125 0.87256 35.6935C0.80231 35.9745 0.80231 36.3257 0.94281 36.5365L2.98007 39.9085C3.12057 40.1895 3.40157 40.33 3.68257 40.4002C3.75282 40.4002 3.82307 40.4002 3.82307 40.4002C4.10407 40.4002 4.31482 40.33 4.52557 40.1192L7.26533 37.7307L8.10833 39.0655C9.51333 41.454 12.1828 42.9292 14.9226 42.9292C16.3276 42.9292 17.8029 42.5077 18.9971 41.8052L19.9806 41.173C20.5426 40.8217 20.9641 40.33 21.1046 39.6977C21.1749 39.5572 21.1749 39.3465 21.1749 39.206L23.4229 37.8712C26.0924 36.2555 28.0594 33.586 28.8321 30.5652L31.0099 21.8542C31.1504 21.2922 30.7991 20.7302 30.2371 20.5897ZM4.10407 37.7307L3.40157 36.5365L6.00082 35.553L6.28183 35.9745L4.10407 37.7307ZM26.8651 30.1437C26.2329 32.6025 24.6171 34.8505 22.4394 36.115L20.4724 37.3092L11.7613 22.6972L13.7283 21.5029C15.2036 20.5897 16.9599 20.0979 18.7161 20.0979C19.4889 20.0979 20.3319 20.1682 21.0344 20.3789L28.7619 22.2757L26.8651 30.1437Z" fill="#49A986"/>
<path d="M60.9365 35.553L57.9157 32.5323C57.705 32.3215 57.424 32.181 57.0727 32.2513C56.7917 32.2513 56.5107 32.462 56.3 32.6728L53.9817 35.9745L52.7172 34.71C51.1015 33.0943 48.9237 32.181 46.6757 32.181C44.3575 32.181 42.25 33.0943 40.6342 34.71L39.6507 35.6233C39.0184 36.2555 38.8077 37.1688 38.9482 38.0118L36.8407 40.1193C34.4522 42.5078 33.1174 45.8096 33.1174 49.1816L33.1877 58.9464C33.1877 59.5084 33.6794 60.0001 34.2414 60.0001H44.0062C47.3782 60.0001 50.6097 58.6654 52.9982 56.2768L55.1057 54.1693C55.3165 54.2396 55.457 54.2396 55.6677 54.2396C56.3702 54.2396 57.0025 53.9586 57.4942 53.4668L58.4075 52.5536C61.7795 49.1816 61.7795 43.7723 58.4075 40.4706L57.424 39.4871L60.7258 37.1688C61.0068 36.958 61.1473 36.7473 61.1473 36.396C61.2175 36.115 61.1473 35.7638 60.9365 35.553ZM51.523 54.8016C49.4857 56.8388 46.8865 57.8926 44.0062 57.8926H35.2952L35.2249 49.1113C35.2249 46.3013 36.3489 43.5616 38.3159 41.5243L40.1424 39.6978L53.3495 52.9048L51.523 54.8016ZM55.9487 38.0118L55.457 37.52L57.2835 34.9208L58.548 36.1853L55.9487 38.0118Z" fill="#49A986"/>
<path d="M52.7874 6.32885L52.0147 5.90735L53.9817 3.51884C54.1924 3.30809 54.2627 2.95684 54.1924 2.67584C54.1222 2.39484 53.9817 2.11384 53.7007 1.97334L50.6799 0.146835C50.3989 0.00633445 50.1179 -0.0639157 49.8369 0.0765847C49.5559 0.146835 49.3452 0.427836 49.2047 0.708836L48.1509 3.65934L47.0269 3.02709C45.9029 2.39484 44.7087 2.04359 43.4442 2.04359C40.8449 2.04359 38.4564 3.44859 37.1919 5.6966L36.6299 6.60985C36.3489 7.17185 36.2786 7.73386 36.4191 8.36611C36.4894 8.50661 36.4894 8.64711 36.5596 8.71736L35.4356 10.7546C34.0306 13.2134 33.6794 16.1639 34.4521 18.8334L36.6299 26.5609C36.7704 27.0527 37.1919 27.3337 37.6134 27.3337C37.6836 27.3337 37.8241 27.3337 37.8944 27.2634L45.6219 25.1559C48.3617 24.3832 50.6097 22.6269 52.0147 20.1681L53.2089 18.1309C53.9817 18.0606 54.6139 17.6391 55.0354 17.0069L55.5272 16.0936C57.4239 12.7216 56.2297 8.29586 52.7874 6.32885ZM50.7502 2.60559L51.5932 3.09734L50.1882 4.8536L49.9774 4.7131L50.7502 2.60559ZM50.1882 19.1846C49.0642 21.1516 47.2377 22.5566 45.0599 23.1889L38.3159 25.0154L36.4191 18.2714C35.7869 16.0936 36.1381 13.7051 37.2621 11.7381L38.1754 10.1224L51.1014 17.5689L50.1882 19.1846Z" fill="#49A986"/>
</svg>
