<svg width="42" height="36" viewBox="0 0 42 36" fill="none" xmlns="http://www.w3.org/2000/svg">
<path d="M34.4823 14.087H19.1125C17.926 14.087 16.9553 13.1163 16.9553 11.9299V0.658691H0.776581V35.6587H8.86595V32.9083H11.5624V35.6587H19.6518V32.9083H22.3482V35.6587H30.4376V32.9083H33.1341V35.6587H39.0663C40.2527 35.6587 41.2234 34.688 41.2234 33.5015V32.9083V20.4507C41.2234 16.9453 38.2034 14.087 34.4823 14.087ZM3.47304 3.35515H14.2589V5.99767H3.47304V3.35515ZM11.5624 30.2658H3.47304V23.4707H10.6995C11.131 23.4707 11.5085 23.8482 11.5085 24.2796V30.2658H11.5624ZM38.527 30.2658H14.2589V24.3336C14.2589 22.3921 12.6949 20.8282 10.7535 20.8282H3.47304V8.69413H14.2589V11.9299C14.2589 14.6263 16.416 16.7835 19.1125 16.7835H19.6518V19.48H22.3482V16.7835H25.0447V19.48H27.7411V16.7835H30.4376V19.48H33.1341V16.7835H34.4823C36.6934 16.7835 38.527 18.4553 38.527 20.4507V30.2658Z" fill="#49A986"/>
</svg>
