<svg width="21" height="21" viewBox="0 0 21 21" fill="none" xmlns="http://www.w3.org/2000/svg">
<g id="Group 63">
<path id="Vector" d="M10.5 0.911316C5.16671 0.911316 0.833374 5.39407 0.833374 10.9113C0.833374 16.4286 5.16671 20.9113 10.5 20.9113C15.8334 20.9113 20.1667 16.4286 20.1667 10.9113C20.1667 5.39407 15.8334 0.911316 10.5 0.911316ZM10.5 19.8079C5.76671 19.8079 1.96671 15.8079 1.96671 10.9803C1.96671 6.08373 5.83337 2.1527 10.5 2.1527C15.2334 2.1527 19.0334 6.1527 19.0334 10.9803C19.1 15.8079 15.2334 19.8079 10.5 19.8079Z" fill="white"/>
<path id="Vector_2" d="M14.8334 5.2561L8.36669 7.39403C7.83336 7.60093 7.23336 8.15265 7.03336 8.77334L5.03336 15.394C4.90002 15.7389 4.96669 16.0837 5.16669 16.3595C5.30002 16.5664 5.56669 16.7044 5.90002 16.7044C6.03336 16.7044 6.16669 16.7044 6.30002 16.6354L12.7667 14.4975C13.3 14.2906 13.9 13.7389 14.1 13.1182L16.0334 6.42851C16.1667 6.08369 16.1 5.73886 15.9 5.463C15.7 5.18713 15.3 5.11817 14.8334 5.2561ZM12.9 12.7733C12.8334 12.9802 12.5667 13.3251 12.3 13.394L6.16669 15.394L8.10002 9.0492C8.16669 8.84231 8.43336 8.49748 8.70002 8.42851L14.8334 6.42851L12.9 12.7733Z" fill="white"/>
<path id="Vector_3" d="M9.23341 12.2906C9.56674 12.6354 10.0334 12.8423 10.5667 12.8423C11.0334 12.8423 11.5001 12.6354 11.9001 12.2906C12.2334 11.9457 12.4334 11.463 12.4334 10.9113C12.4334 10.4285 12.2334 9.94574 11.9001 9.53195C11.5667 9.18712 11.1001 8.98022 10.5667 8.98022C10.1001 8.98022 9.63341 9.18712 9.23341 9.53195C8.90007 9.87678 8.70007 10.3595 8.70007 10.9113C8.70007 11.463 8.83341 11.9457 9.23341 12.2906ZM10.0334 10.4285C10.1667 10.2906 10.3667 10.2216 10.5667 10.2216C10.7667 10.2216 10.9667 10.2906 11.1001 10.4285C11.2334 10.5664 11.3001 10.7733 11.3001 10.9802C11.3001 11.1871 11.2334 11.394 11.1001 11.5319C10.8334 11.8078 10.3667 11.8078 10.1001 11.5319C9.96674 11.394 9.90007 11.1871 9.90007 10.9802C9.76674 10.7044 9.83341 10.5664 10.0334 10.4285Z" fill="white"/>
</g>
</svg>
