<svg width="20" height="21" viewBox="0 0 20 21" fill="none" xmlns="http://www.w3.org/2000/svg">
<path id="Vector" d="M16.0244 8.51789C15.8585 8.26893 15.8585 7.85399 16.0244 7.68802L19.012 2.70876C19.261 2.29382 19.261 1.7959 19.095 1.46395C18.929 1.04901 18.5141 0.800049 18.0161 0.800049H2.3315C1.41864 0.800049 0.671753 1.54694 0.671753 2.4598V20.8H2.08254V15.2399C2.16553 15.2399 2.24852 15.2399 2.3315 15.2399H18.0161C18.5141 15.2399 18.929 14.9909 19.178 14.659C19.4269 14.244 19.344 13.8291 19.095 13.4142L16.0244 8.51789ZM2.3315 13.9121C2.16553 13.9121 2.08254 13.8291 2.08254 13.6631V2.4598C2.08254 2.29382 2.16553 2.21084 2.3315 2.21084H17.6842L14.8626 6.94113C14.4477 7.60503 14.4477 8.60088 14.8626 9.26478L17.6842 13.9121H2.3315Z" fill="#E0F0E5"/>
</svg>
