<svg width="46" height="50" viewBox="0 0 46 50" fill="none" xmlns="http://www.w3.org/2000/svg">
<path id="Vector" d="M14.8286 33.9391C15.9557 33.9391 17.0264 33.8264 18.0972 33.5447L21.7038 37.0386V48.7602C21.7038 49.4365 22.2674 50 22.9436 50C23.6198 50 24.1834 49.4365 24.1834 48.7602V37.0386L27.79 33.5447C28.8608 33.8264 29.9878 33.9391 31.0586 33.9391C34.8906 33.9391 38.4409 32.4739 41.1459 29.7689C44.7526 26.1623 46.1614 20.9214 44.8653 16.0186C44.7526 15.5678 44.4144 15.2296 43.9636 15.1169C42.7802 14.7788 41.5404 14.6097 40.3006 14.6097C36.4685 14.6097 32.9182 16.075 30.2133 18.7799C26.8884 22.1048 25.4232 26.9513 26.2685 31.5723L24.1834 33.601V18.8363C27.0574 18.3291 29.6497 16.5258 31.0022 13.8771C32.5801 10.8904 32.4111 7.28374 30.6077 4.46605C30.3823 4.07157 29.9315 3.84615 29.4807 3.90251C28.9171 3.90251 28.3536 4.01522 27.8464 4.12792C26.9447 2.43731 25.4795 1.02846 23.5635 0.126796C23.2254 -0.0422654 22.8309 -0.0422654 22.4928 0.126796C20.5204 1.08481 18.9988 2.55001 18.0408 4.24063C17.4209 4.07157 16.7447 4.01522 16.0684 3.95886C15.6176 3.95886 15.2231 4.18428 14.9977 4.57875C13.2507 7.4528 13.138 11.0595 14.7723 13.9899C16.2375 16.6385 18.8298 18.4418 21.8165 18.8363V33.601L19.7314 31.5723C20.6331 26.9513 19.1679 22.1612 15.7867 18.7799C13.0817 16.075 9.53137 14.6097 5.69931 14.6097C4.45952 14.6097 3.21974 14.7788 2.0363 15.1169C1.58547 15.2296 1.24735 15.5678 1.13464 16.0186C-0.161497 20.9214 1.24735 26.2187 4.854 29.7689C7.44628 32.4739 11.0529 33.9391 14.8286 33.9391ZM32.0166 20.5833C34.2707 18.3291 37.2011 17.0893 40.357 17.0893C41.1459 17.0893 41.9349 17.1457 42.6675 17.3147C43.4564 21.1468 42.2166 25.2043 39.4553 27.9656C37.2575 30.2198 34.2707 31.4032 31.1149 31.4032C30.7768 31.4032 30.4387 31.4032 30.0442 31.3469L36.5812 25.0916C37.0884 24.6407 37.0884 23.8518 36.6376 23.3446C36.1868 22.8374 35.3978 22.8374 34.8906 23.2883L28.579 29.4308C28.4663 26.1623 29.6497 22.9501 32.0166 20.5833ZM16.9137 12.8064C15.843 10.834 15.7867 8.46717 16.7447 6.49479C16.8574 6.49479 17.0264 6.55114 17.1392 6.55114C17.5336 6.6075 17.9281 6.7202 18.3226 6.88926C18.7171 7.05833 19.1115 7.22739 19.4497 7.4528C20.1823 7.90363 20.8585 8.52353 21.422 9.25613C21.5911 9.48154 21.7602 9.76331 21.9292 10.0451C22.0419 10.2141 22.1546 10.4396 22.211 10.665C22.6618 11.6793 22.8309 12.7501 22.7182 13.8771C22.6618 14.328 22.6055 14.7788 22.4928 15.1733C22.4364 15.4551 22.3237 15.7368 22.211 16.0186C22.1546 16.1313 22.0983 16.244 22.0983 16.3004C21.7038 16.244 21.3093 16.1877 20.9712 16.075C19.2242 15.5678 17.759 14.3843 16.9137 12.8064ZM23 2.60637C24.0707 3.22626 24.916 4.07157 25.5359 4.97323C24.5215 5.53677 23.6198 6.21302 22.8309 7.11468C22.0983 6.32573 21.253 5.64948 20.3513 5.14229C20.9712 4.12792 21.8729 3.28261 23 2.60637ZM28.9171 6.43843C29.8751 8.41082 29.8751 10.7777 28.8608 12.7501C28.0155 14.3843 26.5503 15.6241 24.8033 16.1877C24.8596 16.0186 24.916 15.9059 24.916 15.7368C25.0851 15.1733 25.1414 14.5534 25.1978 13.9335C25.2541 13.37 25.1978 12.7501 25.1414 12.1865C25.0287 11.1722 24.7469 10.2141 24.2961 9.31248C24.8596 8.52353 25.6486 7.84728 26.4939 7.3401C26.8884 7.11468 27.2265 6.94562 27.6773 6.83291C28.0718 6.7202 28.4663 6.60749 28.9171 6.43843ZM3.27609 17.3711C4.06505 17.202 4.854 17.1457 5.5866 17.1457C8.74242 17.1457 11.6728 18.3855 13.927 20.5833C16.2938 22.9501 17.5336 26.2187 17.3646 29.4872L11.1093 23.401C10.6021 22.9501 9.81314 22.9501 9.36231 23.4573C8.91148 23.9645 8.91148 24.7535 9.41867 25.2043L15.9557 31.4596C15.6176 31.5159 15.2795 31.5159 14.885 31.5159C11.7292 31.5159 8.79877 30.2761 6.54462 28.0783C3.72692 25.2043 2.54349 21.2032 3.27609 17.3711Z" fill="#49A986"/>
</svg>
