<svg width="121" height="31" viewBox="0 0 121 31" fill="none" xmlns="http://www.w3.org/2000/svg">
<g id="Group 552">
<g id="Group">
<path id="Vector" d="M48.9243 6.67856C51.6267 6.67856 55.0196 8.2015 55.1182 12.0674L51.7254 12.087C51.5873 10.564 50.2854 9.90017 48.8848 9.90017C47.2279 9.90017 46.2416 10.4664 46.2416 11.5988C46.2416 12.9265 48.0563 13.3951 50.1473 13.8832C52.613 14.5276 55.5325 15.3476 55.5325 18.4325C55.5325 22.2985 52.5144 23.8214 49.2202 23.8214C46.5769 23.8214 42.5725 22.7475 42.4739 17.9639L45.9457 17.9444C46.0246 20.0141 47.938 20.5998 49.2793 20.5998C50.7193 20.5998 51.6465 19.9555 51.6465 18.7449C51.6465 17.5734 50.1473 17.222 48.4706 16.812C45.6892 16.1481 42.3161 15.3476 42.3161 11.8136C42.3161 8.29912 45.1566 6.67856 48.9243 6.67856Z" fill="white"/>
<path id="Vector_2" d="M70.1692 6.89337V10.3493H61.3714V13.4733H68.9659V16.9682H61.3714V20.1508H70.1692V23.6067H57.8207V6.89337H70.1692Z" fill="white"/>
<path id="Vector_3" d="M72.3389 23.6067V6.89337H76.146L83.8391 18.335V6.89337H87.3701V23.6067H83.563L75.8896 12.1651V23.6067H72.3389Z" fill="white"/>
<g id="Group_2">
<path id="Vector_4" d="M93.4002 6.89334H87.4233V23.6066H90.9739V17.632H93.4002C97.089 17.632 99.4758 15.8943 99.4758 12.3017C99.4955 8.72868 97.1087 6.89334 93.4002 6.89334ZM93.3608 14.1761H90.9739V10.3492H93.3608C95.1756 10.3492 95.9646 11.1302 95.9646 12.2041C95.9646 13.5318 95.1756 14.1761 93.3608 14.1761Z" fill="#B1E0CF"/>
<path id="Vector_5" d="M105.275 6.89334H101.724V23.6066H105.275V6.89334Z" fill="#B1E0CF"/>
<path id="Vector_6" d="M116.519 17.3001C118.787 16.6558 120.188 15.0157 120.188 12.3017C120.188 8.72867 117.781 6.87381 114.093 6.87381H108.116V23.5871H111.666V17.6125H112.889L117.071 23.5871L120.898 23.6066L116.519 17.3001ZM114.053 14.1566H111.666V10.3492H114.053C115.829 10.3492 116.637 11.1302 116.637 12.2041C116.637 13.5318 115.829 14.1566 114.053 14.1566Z" fill="#B1E0CF"/>
</g>
</g>
<path id="Vector_7" d="M32.8811 16.0762L25.0728 7.87448L21.199 3.79884L18.0414 0.5L14.8434 3.85937L10.1927 8.74207L2.97966 16.3183C-1.06571 20.5755 -0.490679 24.6512 2.50552 27.8088C5.76401 31.2287 9.14356 31.5616 12.9973 27.8088C12.9973 27.8088 12.9973 27.8088 13.0073 27.7987C13.1082 27.7079 13.199 27.607 13.2999 27.5061C13.2999 27.5061 13.31 27.5061 13.31 27.496L13.421 27.3851L16.5786 24.0661L18.0414 22.4217L18.9695 23.4002L22.6416 27.2539C22.6416 27.2539 22.6416 27.2539 22.6517 27.264C23.5596 28.2123 25.0022 28.2426 25.8698 27.3346C26.7374 26.4166 26.7172 24.9034 25.8093 23.9551C25.8093 23.9551 25.8093 23.9551 25.7992 23.945L21.8043 19.7483L21.199 19.1127L18.0514 15.8038L10.5256 23.8038C8.39703 26.0333 6.82327 25.7003 5.67322 24.4898C4.53325 23.2994 4.22051 21.6449 6.35921 19.4053L13.3503 12.0611L15.146 10.1746L15.8926 9.38771L18.001 7.17839L21.8749 11.254L29.4612 19.2237C31.3376 21.201 31.267 22.7344 30.4095 23.9046C30.3994 23.9147 30.3994 23.9147 30.3893 23.9248C29.5117 24.8428 29.5016 26.3258 30.3692 27.2338C31.2266 28.1417 32.639 28.1316 33.5167 27.2136C33.5772 27.153 33.6377 27.0824 33.6882 27.0118C36.2909 23.8845 36.6339 20.0308 32.8811 16.0762Z" fill="white"/>
</g>
</svg>
