<svg width="48" height="50" viewBox="0 0 48 50" fill="none" xmlns="http://www.w3.org/2000/svg">
<g id="Group">
<path id="Vector" d="M30.4664 24.396C30.2002 24.396 29.9873 24.396 29.7211 24.4492C29.7744 24.1831 29.7744 23.9701 29.7744 23.704C29.7744 21.3086 28.2307 19.1794 25.995 18.4341C24.9304 18.1147 23.3334 17.6889 21.5236 17.6889H21.4704C22.1091 16.6775 22.9608 15.2935 24.0254 13.9095C26.1547 11.1415 25.9417 8.37349 23.4931 6.51042C22.3753 5.65872 20.246 4.7538 17.3716 6.72334C17.4248 6.56365 17.4248 6.35072 17.478 6.1378C18.0104 2.62457 15.7747 0.548564 13.4325 0.0694869C10.8242 -0.409591 8.53527 1.66641 7.94973 3.90211C7.68357 4.86026 7.31096 6.40395 6.93834 8.26703C6.3528 8.10734 5.6608 8.00088 4.70265 8.05411C2.67988 8.2138 0.231259 9.70427 0.0715662 13.324C-0.141357 17.6889 2.09434 29.6126 4.59619 37.0649C4.91557 38.2892 5.34142 39.4603 5.92696 40.6846C8.64173 46.3271 13.1663 49.3612 19.767 49.9468C20.1928 50 20.7251 50 21.2574 50C24.8239 50 30.0937 48.8289 33.8199 42.9203C36.3218 38.928 37.2267 32.4338 35.7894 28.1221C34.991 25.8864 32.915 24.396 30.4664 24.396ZM10.1322 4.54088C10.4516 3.31657 11.7823 2.09226 13.0067 2.35841C14.231 2.57134 15.5617 3.63595 15.2424 5.81842C14.923 7.78796 14.8165 8.69288 14.8165 9.0655C12.847 11.1415 9.86604 14.6547 7.47065 19.1261C8.21588 12.7917 9.44019 6.88303 10.1322 4.54088ZM4.64942 26.1526C4.54296 26.6317 4.43649 27.1107 4.33003 27.5366C3.05249 21.8941 2.14757 16.1452 2.30726 13.4837C2.46695 10.7689 4.2768 10.3963 4.86234 10.343C5.71403 10.2898 6.13988 10.3963 6.45927 10.556C5.60757 15.0806 4.80911 20.8827 4.64942 26.0994C4.64942 26.1526 4.64942 26.1526 4.64942 26.1526ZM31.8504 41.7492C28.3904 47.2852 23.4399 48.0305 19.9267 47.7111C16.4134 47.3917 11.4097 46.3271 8.26911 40.4717C8.26911 40.3652 8.21588 40.312 8.16265 40.2055C7.68357 39.2474 7.2045 37.9698 6.72542 36.5326C3.63803 24.6621 13.8051 13.2175 17.2119 9.81073C18.5427 8.47996 19.7137 7.84119 20.7251 7.84119C21.2042 7.84119 21.6833 8.00088 22.1091 8.32026C22.6414 8.69288 24.1851 9.91719 22.2156 12.5787C20.459 14.9209 19.1814 17.1034 18.6491 18.0083C15.8279 18.647 12.7405 20.4569 10.2387 24.5557C9.91927 25.088 10.079 25.78 10.6113 26.0994C11.1436 26.4187 11.8356 26.2591 12.155 25.7267C16.3602 18.86 22.1624 19.552 25.2497 20.5634C26.7934 21.0424 27.4854 22.4797 27.4854 23.6507C27.4854 24.5024 27.1661 25.3541 26.5273 25.9929C25.6756 26.8446 24.3448 27.164 23.227 26.7914C21.0977 26.0994 18.5427 26.8446 16.7328 28.6544C14.0713 31.316 13.6987 35.2018 15.8811 37.5972C17.2119 39.0877 19.2879 39.9926 21.3639 40.0458C23.014 40.0991 24.4513 39.5668 25.4094 38.6086C27.7516 36.2664 28.0177 33.0194 27.3257 30.7837C26.9531 29.6658 27.2725 28.3883 28.1242 27.4834C28.763 26.8446 29.5614 26.5252 30.4664 26.5252C31.9036 26.5252 33.1279 27.3769 33.5538 28.7609C34.7781 32.5403 34.0328 38.3424 31.8504 41.7492ZM25.1965 31.5821C25.7288 33.1258 25.5159 35.468 23.8657 37.0649C23.3334 37.5972 22.4817 37.8634 21.4704 37.8101C19.9799 37.7569 18.5427 37.1181 17.6377 36.1068C16.1473 34.4566 16.8925 31.7951 18.383 30.2514C19.3411 29.2932 20.5122 28.7609 21.63 28.7609C21.9494 28.7609 22.2688 28.8141 22.5882 28.9206C23.3867 29.1867 24.1851 29.24 24.9836 29.1335C24.8771 29.9852 24.9304 30.7837 25.1965 31.5821Z" fill="#49A986"/>
<path id="Vector_2" d="M29.2955 13.3771C29.4552 13.4304 29.6149 13.4836 29.7746 13.4836C30.2005 13.4836 30.6263 13.2175 30.8392 12.7916L33.9266 5.76514C34.1928 5.1796 33.9266 4.54083 33.3411 4.27468C32.7555 4.00852 32.1168 4.27468 31.8506 4.86022L28.7632 11.8867C28.4438 12.419 28.71 13.111 29.2955 13.3771Z" fill="#49A986"/>
<path id="Vector_3" d="M43.6677 12.5788C43.2951 12.0465 42.6031 11.94 42.0708 12.3126L35.9493 16.784C35.417 17.1566 35.3105 17.8486 35.6831 18.381C35.896 18.7003 36.2687 18.86 36.588 18.86C36.801 18.86 37.0671 18.8068 37.28 18.6471L43.4016 14.1757C43.9339 13.7499 44.0404 13.0579 43.6677 12.5788Z" fill="#49A986"/>
<path id="Vector_4" d="M47.9262 24.9817C47.8198 24.3429 47.2342 23.917 46.6487 24.0235L40.1013 25.0349C39.4625 25.1414 39.0367 25.7269 39.1431 26.3124C39.2496 26.898 39.7287 27.2706 40.261 27.2706C40.3142 27.2706 40.3674 27.2706 40.4207 27.2706L47.0213 26.3124C47.6068 26.206 48.0327 25.6204 47.9262 24.9817Z" fill="#49A986"/>
</g>
</svg>
