<svg width="62" height="50" viewBox="0 0 62 50" fill="none" xmlns="http://www.w3.org/2000/svg">
<g id="Group">
<path id="Vector" fill-rule="evenodd" clip-rule="evenodd" d="M23.2808 31.7802C22.5159 31.7802 21.89 32.3365 21.7509 33.0319C21.4728 34.2837 20.3601 34.9095 19.0388 34.9095C18.413 34.9095 17.7871 34.7704 17.3698 34.4923C16.9526 34.2141 16.744 33.936 16.6744 33.3796C16.6049 32.5451 15.8399 31.9193 14.9359 32.0583C14.1014 32.1279 13.4755 32.8928 13.6146 33.7969C13.6146 33.7969 13.6146 33.7968 13.6146 33.8664C13.8232 35.2572 14.5882 36.4394 15.6313 37.1348C16.6744 37.8302 17.8566 38.1084 19.0388 38.1084C21.4032 38.0389 24.1153 36.648 24.6716 33.7969C24.8803 32.9624 24.3239 32.1279 23.4894 31.9192C23.4894 31.8497 23.4199 31.7802 23.2808 31.7802Z" fill="#49A986"/>
<path id="Vector_2" fill-rule="evenodd" clip-rule="evenodd" d="M10.9021 23.9223C10.1372 23.9223 9.44175 24.5482 9.37221 25.3131C9.23313 26.7039 9.71992 28.0252 10.5544 28.8597C11.3889 29.6942 12.5016 30.1115 13.6142 30.1115C14.7269 30.1115 15.8395 29.7638 16.674 28.8597C17.5085 28.0252 17.9953 26.704 17.7867 25.2436C17.7171 24.4091 16.9522 23.7832 16.1177 23.8528C15.2832 23.9223 14.6573 24.6872 14.7269 25.5217C14.7964 26.2171 14.6573 26.4258 14.4487 26.6344C14.2401 26.843 13.9619 26.9821 13.6142 26.9125C13.2665 26.9125 12.9188 26.7735 12.7102 26.5648C12.5016 26.3562 12.3625 26.1476 12.432 25.4522C12.5016 24.6177 11.9452 23.8527 11.0412 23.7832C11.0412 23.9223 10.9717 23.9223 10.9021 23.9223Z" fill="#49A986"/>
<path id="Vector_3" fill-rule="evenodd" clip-rule="evenodd" d="M22.1687 23.9223C21.4038 23.9223 20.7084 24.5482 20.6388 25.3131C20.4997 26.7039 20.9865 28.0252 21.821 28.8597C22.6555 29.6942 23.7682 30.1115 24.8808 30.1115C25.9935 30.1115 27.1061 29.7638 27.9406 28.8597C28.7751 28.0252 29.2619 26.704 29.1228 25.2436C29.0533 24.4091 28.2883 23.7832 27.4538 23.8528C26.6193 23.9223 25.9935 24.6872 26.063 25.5217C26.1326 26.2171 25.9935 26.4258 25.7848 26.6344C25.5762 26.843 25.2981 26.9821 24.9504 26.9821C24.6026 26.9821 24.2549 26.843 24.0463 26.6344C23.8377 26.4258 23.6986 26.2171 23.7682 25.5217C23.8377 24.6872 23.2814 23.9223 22.4469 23.7832C22.3078 23.9223 22.2383 23.9223 22.1687 23.9223Z" fill="#49A986"/>
<path id="Vector_4" fill-rule="evenodd" clip-rule="evenodd" d="M46.6463 19.6802C45.8814 19.6802 45.3251 20.2365 45.186 20.9319C44.6992 23.4354 40.3876 23.3658 40.1095 21.2796C40.0399 20.4451 39.275 19.8192 38.371 19.9583C37.5365 20.0279 36.9106 20.7928 37.0497 21.6968C37.0497 21.6968 37.0497 21.6969 37.0497 21.7664C37.8146 27.3297 46.994 27.3297 48.1762 21.6273C48.3849 20.7928 47.8285 19.9583 46.994 19.8193C46.855 19.6802 46.7159 19.6802 46.6463 19.6802Z" fill="#49A986"/>
<path id="Vector_5" fill-rule="evenodd" clip-rule="evenodd" d="M34.2683 11.7525C33.5034 11.7525 32.808 12.3784 32.7384 13.1433C32.5993 14.5341 33.0861 15.8554 33.9206 16.6899C34.7551 17.5244 35.8678 17.9417 36.9804 17.9417C38.0931 17.9417 39.2057 17.594 40.0402 16.6899C40.8747 15.8554 41.3615 14.5342 41.1529 13.0738C41.0833 12.2393 40.3184 11.6134 39.4839 11.683C38.6494 11.7525 38.0235 12.5174 38.0931 13.3519C38.1626 14.0473 38.0235 14.256 37.8149 14.4646C37.6063 14.6732 37.3281 14.8123 36.9804 14.7427C36.6327 14.7427 36.285 14.6037 36.0764 14.395C35.8678 14.1864 35.7287 13.9778 35.7982 13.2824C35.8678 12.4479 35.3114 11.6829 34.4074 11.6134C34.4074 11.822 34.3379 11.7525 34.2683 11.7525Z" fill="#49A986"/>
<path id="Vector_6" fill-rule="evenodd" clip-rule="evenodd" d="M45.4646 11.7525C44.6997 11.7525 44.0043 12.3784 43.9347 13.1433C43.7956 14.5341 44.2824 15.8554 45.1169 16.6899C45.9514 17.5244 47.0641 17.9417 48.1767 17.9417C49.2894 17.9417 50.402 17.594 51.2365 16.6899C52.071 15.7859 52.5578 14.5342 52.3492 13.0738C52.2796 12.2393 51.5147 11.6134 50.6802 11.683C49.8457 11.7525 49.2198 12.5174 49.2894 13.3519C49.3589 14.0473 49.2198 14.256 49.0112 14.4646C48.8026 14.6732 48.5244 14.8123 48.1767 14.7427C47.829 14.7427 47.4813 14.6037 47.2727 14.395C47.0641 14.1864 46.925 13.9778 46.9945 13.2824C47.0641 12.4479 46.5077 11.6829 45.6037 11.6134C45.6037 11.822 45.5342 11.7525 45.4646 11.7525Z" fill="#49A986"/>
<path id="Vector_7" fill-rule="evenodd" clip-rule="evenodd" d="M42.6132 0C34.1988 0 27.0361 5.49371 24.6021 13.1432C22.8636 12.6564 21.0555 12.3783 19.1779 12.3783C8.81632 12.3087 0.401855 20.7928 0.401855 31.1544C0.401855 41.5855 8.81632 50 19.2475 50C27.5924 50 34.6856 44.5758 37.1195 36.9958C38.858 37.5521 40.7356 37.8303 42.6132 37.8303C53.0444 37.8303 61.5979 29.2767 61.5979 18.8456C61.5979 8.48399 53.1139 0 42.6132 0ZM42.6132 3.05978C51.3754 3.05978 58.4686 10.153 58.4686 18.9151C58.4686 27.7468 51.3754 34.84 42.6132 34.84C40.9443 34.84 39.3448 34.5619 37.8149 34.0751C37.954 33.1711 38.0235 32.1975 38.0235 31.2239C38.0235 23.783 33.712 17.3852 27.4533 14.3254C29.5395 7.78858 35.5201 3.05978 42.6132 3.05978ZM19.2475 15.3685C21.5423 15.3685 23.6286 15.8553 25.5757 16.6898C31.139 19.1238 34.9637 24.6175 34.9637 31.1544C34.9637 32.267 34.8247 33.4492 34.616 34.5618C33.0166 41.655 26.7579 46.9402 19.2475 46.9402C10.4853 46.9402 3.46166 39.9165 3.46166 31.1544C3.46166 22.4617 10.4853 15.3685 19.2475 15.3685Z" fill="#49A986"/>
</g>
</svg>
