<svg width="74" height="60" viewBox="0 0 74 60" fill="none" xmlns="http://www.w3.org/2000/svg">
<path d="M49.6175 29.1995C50.4175 29.1995 51.066 28.551 51.066 27.751C51.066 26.951 50.4175 26.3024 49.6175 26.3024C48.8175 26.3024 48.1689 26.951 48.1689 27.751C48.1689 28.551 48.8175 29.1995 49.6175 29.1995Z" fill="#49A986"/>
<path d="M73.2516 35.9085C73.2516 35.5273 73.1754 35.1461 72.8704 34.8412L71.4981 33.4689C71.1931 33.1639 70.812 33.0114 70.4308 33.0877C70.0496 33.0877 69.6684 33.3164 69.4397 33.6213L68.6773 34.6887C67.6862 33.6976 66.1614 32.9352 64.7128 32.9352C63.2643 32.9352 61.892 33.4689 60.9009 34.5362L60.3672 35.0699C59.986 35.4511 59.7573 36.061 59.7573 36.5947C59.7573 36.8996 59.8335 37.2808 59.986 37.5095C59.986 37.5095 59.2236 38.2719 59.0712 38.5006C58.6137 37.967 58.0038 37.5858 57.3177 37.3571C56.5553 37.1283 54.8018 36.4422 53.3532 35.8323C57.6226 35.6036 60.0623 34.0025 60.1385 31.3342C60.291 25.9975 53.277 21.9568 49.8463 20.8132L50.2275 16.4676C50.2275 16.0864 50.1512 15.629 49.8463 15.4003C49.5413 15.0953 49.1601 14.9428 48.7789 15.0191C47.3304 15.1715 44.8145 16.3914 43.9759 19.4409L42.4511 16.3151C42.2224 15.9339 41.8412 15.629 41.46 15.5527C41.0025 15.4765 40.5451 15.629 40.2402 16.0102C38.9441 17.4587 37.1906 21.1944 39.859 24.8539C39.6302 25.2351 39.4778 25.6925 39.3253 26.0737C38.0292 30.0381 35.8183 32.4778 33.6836 34.9174C33.0737 35.6036 32.4638 36.2897 31.9301 36.9759V15.5527C31.9301 15.5527 31.9301 15.5527 31.9301 15.4765C31.8539 6.93774 24.8399 0 16.3011 0C7.76239 0 0.748413 7.01398 0.748413 15.5527C0.748413 23.6341 7 30.3431 14.9288 31.0292C14.9288 31.0292 14.9288 44.4473 14.9288 44.5235C15.0051 53.0623 21.9428 60 30.4816 60C32.3876 60 34.2935 59.6188 36.047 59.0089C36.047 59.0089 36.047 59.0089 36.1233 59.0089C36.4282 59.1614 36.7332 59.2376 37.0381 59.3139C38.4104 59.7713 39.7827 60 41.2313 60H54.3444C56.479 60 58.2325 58.2465 58.2325 56.1118C58.2325 53.9771 56.479 52.2236 54.3444 52.2236H53.3532C53.5057 51.8424 53.7344 51.385 53.8107 51.0038C54.1156 50.0127 54.2681 48.9454 54.4206 47.878C54.6493 46.5057 54.3444 44.8285 54.3444 44.8285C55.4117 45.1334 56.5553 45.2859 57.6989 44.9047V47.1919C57.6989 47.9543 58.3088 48.5642 59.0712 48.5642H63.5693C67.2287 48.5642 68.601 46.277 68.601 46.277C68.906 46.4295 69.2109 46.5057 69.5159 46.5057C70.1258 46.5057 70.6595 46.277 71.0407 45.8958L71.4981 45.4384C73.6328 43.3037 73.6328 39.8729 71.4981 37.8145L72.5654 37.0521C73.0229 36.6709 73.2516 36.2897 73.2516 35.9085ZM47.3304 18.6023L47.1779 20.3558C46.9492 20.3558 46.7205 20.3558 46.4155 20.3558C46.6442 19.5934 46.9492 18.9835 47.3304 18.6023ZM41.155 19.8983L42.2224 22.033C41.9937 22.1855 41.7649 22.4142 41.6125 22.5667C41.0788 21.5756 41.0025 20.6607 41.155 19.8983ZM17.6734 44.4473V31.1055C18.7408 31.0292 19.7319 30.8005 20.723 30.5718C20.723 30.5718 20.723 43.5324 20.723 43.6086C20.723 49.5553 24.1538 54.7395 29.1093 57.3316C22.629 56.493 17.6734 51.0038 17.6734 44.4473ZM23.3914 43.3799V28.5133C23.3914 28.3609 23.3914 28.1321 23.3151 27.9797C23.0102 27.2935 22.2478 26.9886 21.5616 27.2935C19.9606 27.9797 18.2071 28.3609 16.3774 28.3609C9.28717 28.3609 3.49301 22.5667 3.49301 15.4765C3.49301 8.38628 9.28717 2.59212 16.3774 2.59212C23.4676 2.59212 29.2618 8.38628 29.2618 15.4765V40.7878C29.2618 41.169 28.8806 41.9314 28.7281 42.3888C27.5845 45.7433 27.8895 49.3266 29.4142 52.5286C29.8717 53.4435 30.4053 54.2821 31.0153 54.9682C26.5172 53.0623 23.3914 48.5642 23.3914 43.3799ZM54.3444 54.8158C55.0305 54.8158 55.5642 55.3494 55.5642 56.0356C55.5642 56.7217 55.0305 57.2554 54.3444 57.2554H49.2363C50.1512 56.5692 50.9898 55.7306 51.676 54.8158H54.3444ZM57.3939 41.6264C57.3177 42.0076 57.0127 42.4651 56.2503 42.4651C56.0978 42.4651 54.4968 42.0076 53.1245 41.5502C52.8196 41.169 52.5146 40.7878 52.1334 40.4066C50.4562 38.8056 47.864 38.1194 44.8145 38.3482C44.0521 38.4244 43.5184 39.0343 43.5947 39.7967C43.6709 40.5591 44.2808 41.0928 45.0432 41.0165C47.4066 40.864 49.2363 41.3215 50.3037 42.3888C51.9809 43.9136 52.0572 46.582 51.5997 48.6404C51.5235 49.0978 51.371 49.5553 51.2186 50.0127C49.77 54.3583 45.7294 57.2554 41.155 57.2554C40.0114 57.2554 38.8679 57.1029 37.8005 56.7217C35.1322 55.8069 32.9212 53.9771 31.7014 51.385C30.4053 48.8691 30.2529 45.972 31.0915 43.3037C32.0064 40.6353 33.6074 38.8056 35.5133 36.6709C37.7243 34.2313 40.2402 31.4104 41.6887 26.9123C42.4511 24.6252 44.5858 23.0241 47.0254 23.0241C47.6353 23.0241 48.2452 23.1004 48.7789 23.3291C52.5909 24.5489 57.5464 28.1321 57.4701 31.2579C57.3939 33.1639 52.8958 33.2402 52.3621 33.2402C52.0572 33.2402 51.8285 33.2402 51.8285 33.2402C51.371 33.2402 50.8374 33.4689 50.6086 33.8501L49.5413 35.5273C49.3126 35.8323 49.3126 36.2897 49.3888 36.6709C49.5413 37.0521 49.77 37.3571 50.1512 37.5095C50.3799 37.5858 54.9543 39.4917 56.4028 39.9492C56.784 40.1017 57.6226 40.6353 57.3939 41.6264ZM66.3901 44.5997C65.6277 45.3621 64.6366 45.7433 63.5693 45.7433H60.4435V42.5413C60.4435 41.474 60.9009 40.4066 61.587 39.6442L61.8158 39.4155L66.6951 44.2948L66.3901 44.5997ZM69.6684 43.3799L69.5921 43.4562L62.6544 36.5947L62.7306 36.5184C63.2643 35.9848 63.9505 35.756 64.6366 35.756C65.3228 35.756 66.0089 36.061 66.5426 36.5184L69.5921 39.568C70.7357 40.6353 70.7357 42.3126 69.6684 43.3799Z" fill="#49A986"/>
</svg>
