<svg width="36" height="35" viewBox="0 0 36 35" fill="none" xmlns="http://www.w3.org/2000/svg">
<path d="M14.9773 21.05C10.2517 24.8417 7.23251 28.5026 5.91983 32.2943C3.95082 37.132 0.27534 34.517 0.0128051 31.9021C-0.380997 27.3259 8.41391 20.2655 11.8269 17.5198C6.8387 11.767 4.34463 7.32154 4.08209 4.31435C3.68829 0.130425 8.15138 -0.784807 9.46405 1.17641C11.1705 3.79136 10.2517 8.23677 15.8961 14.6434C21.6719 10.0672 25.6099 6.14481 27.4477 2.61463C29.8105 -1.70004 33.7485 -0.0003222 34.011 2.87612C34.1423 4.70659 29.2854 9.93649 19.1778 18.3043C23.1158 22.3575 29.6792 27.5874 34.011 29.5486C37.6865 31.3791 34.9299 34.3863 32.4358 34.2555C29.4167 34.2555 22.0657 28.5026 14.9773 21.05Z" fill="#B45600"/>
</svg>
