<svg width="92" height="79" viewBox="0 0 92 79" fill="none" xmlns="http://www.w3.org/2000/svg">
<path d="M55.9556 60.7L55.3556 60.9L54.4556 59.7C54.4556 59.6 54.4556 59.4 54.4556 59.3C54.1556 55.8 53.1556 52.4 51.8556 49.7L55.4556 42.7C56.8556 42.5 57.7556 42.2 58.0556 42.1C59.4556 41.7 60.5556 40.7 61.1556 39.4C61.8556 38.1 61.9556 36.7 61.4556 35.3C61.1556 34.5 60.7556 33.8 60.1556 33.2L60.9556 31.9C61.3556 31.2 61.1556 30.2 60.4556 29.8C59.7556 29.4 58.7556 29.6 58.3556 30.3L57.6556 31.8C57.2556 31.7 56.8556 31.7 56.4556 31.7C55.9556 31.7 55.3556 31.8 54.8556 31.9C54.7556 31.9 53.6556 32.2 52.3556 32.2C51.5556 32.2 50.8556 32.1 50.2556 31.9C49.7556 31.7 49.3556 31.3 49.1556 31C49.0556 30.8 48.8556 30.6 48.7556 30.4C50.1556 30 51.4556 29.2 52.6556 28.2C54.4556 26.6 55.5556 24.4 55.8556 22.1L56.5556 22C57.3556 21.9 58.0556 21.2 57.9556 20.3C57.8556 19.5 57.1556 18.8 56.2556 18.9H55.7556C55.4556 17.3 54.7556 15.8 53.7556 14.5L59.0556 12C59.8556 11.6 60.1556 10.7 59.7556 9.99998C59.3556 9.19998 58.4556 8.89998 57.7556 9.29998L52.2556 11.8C51.2556 10.4 49.6556 9.09998 47.0556 9.09998C45.4556 9.09998 43.5556 9.59997 41.1556 10.7C35.6556 13.2 35.3556 18.1 35.9556 20.5C35.8556 22.6 36.4556 24.5 37.5556 26.1L34.6556 24.2C33.8556 22.5 32.2556 21.3 30.2556 21.1L28.7556 20.9C28.5556 20.9 28.2556 20.9 28.0556 20.9C25.1556 20.9 22.7556 23 22.3556 25.9L20.3556 41.9C20.2556 42.3 20.4556 42.7 20.6556 43C20.8556 43.3 21.2556 43.5 21.6556 43.6L30.4556 44.7L30.0556 48.6C30.0556 48.6 30.0556 48.6 30.0556 48.7C29.8556 50.7 29.5556 52.2 29.0556 53.5L26.5556 59.4L24.9556 62.7C24.2556 64.2 24.8556 66.1 26.3556 66.8C27.3556 67.3 28.5556 67.2 29.4556 66.5C29.9556 67.6 31.0556 68.4 32.2556 68.4H35.4556C37.1556 68.4 38.5556 67 38.5556 65.3C38.5556 63.6 37.1556 62.2 35.4556 62.2H35.1556L38.7556 53.6C40.1556 53.7 41.4556 53.9 42.1556 53.9C42.6556 54.2 43.5556 55.1 44.1556 57L40.0556 65.8C39.6556 66.6 39.9556 67.5 40.7556 67.9C40.9556 68 41.2556 68.1 41.4556 68.1C42.0556 68.1 42.5556 67.8 42.8556 67.3L45.5556 62.2V62.3L46.1556 65.7C46.4556 67.2 47.7556 68.3 49.1556 68.3C49.3556 68.3 49.4556 68.3 49.6556 68.3C50.6556 68.1 51.5556 67.5 51.9556 66.6C52.7556 67.5 54.0556 67.9 55.2556 67.6L57.8556 66.8C59.4556 66.3 60.3556 64.6 59.8556 63C59.2556 61.2 57.5556 60.2 55.9556 60.7ZM55.7556 34.8C55.9556 34.7 56.2556 34.7 56.4556 34.7C57.4556 34.7 58.3556 35.3 58.6556 36.3C59.0556 37.5 58.3556 38.8 57.1556 39.2C57.0556 39.2 56.6556 39.4 55.8556 39.5L55.2556 34.9C55.6556 34.9 55.7556 34.8 55.7556 34.8ZM50.7556 15.9C52.2556 17.3 53.0556 19.3 52.8556 21.5C52.5556 25.1 49.5556 27.7 46.0556 27.7C45.8556 27.7 45.6556 27.7 45.3556 27.7C45.1556 27.7 44.9556 27.7 44.7556 27.6C44.3556 27.5 43.9556 27.4 43.5556 27.3C41.0556 26.4 39.2556 24 39.0556 21.3L50.7556 15.9ZM35.1556 28.3L36.0556 28.8C35.6556 29 35.3556 29.3 35.0556 29.6L35.1556 28.3ZM34.4556 36.8C34.7556 33.2 38.0556 30.2 41.7556 30.2C42.1556 30.2 42.4556 30.2 42.7556 30.3C43.1556 30.4 43.5556 30.6 43.9556 30.6C45.0556 31 45.9556 31.8 46.6556 32.7C47.2556 33.6 48.1556 34.4 49.2556 34.8C50.2556 35.2 51.3556 35.3 52.3556 35.3L52.9556 39.9C52.7556 39.9 52.6556 39.9 52.4556 39.9C51.3556 39.9 50.2556 39.8 49.0556 39.5C46.2556 38.7 45.3556 37.6 45.3556 37.5C45.3556 37.5 44.1556 37.9 43.8556 38.1C40.2556 40.9 35.5556 39.8 34.2556 39.4L34.4556 36.8ZM33.8556 42.7C34.7556 42.9 36.2556 43.2 37.8556 43.2C40.0556 43.2 42.5556 42.8 44.8556 41.2C45.4556 41.5 46.1556 41.9 47.0556 42.2L46.7556 45.1L33.7556 43.8L33.8556 42.7ZM48.1556 58.7C47.1556 52.6 43.5556 51.1 43.5556 51.1C43.4556 51 38.3556 50.5 38.3556 50.5H38.2556C37.6556 50.5 37.0556 50.9 36.8556 51.4L33.6556 58.8C33.5556 58.8 33.4556 58.7 33.4556 58.7L30.7556 57.7L32.0556 54.6C32.8556 52.8 33.1556 50.8 33.2556 48.9L33.4556 46.9L47.1556 48.2C48.6556 49.8 50.4556 53.6 51.1556 58.2L48.1556 58.7ZM49.9556 46.7C49.9556 46.7 49.8556 46.6 49.8556 46.5L50.2556 42.8C50.8556 42.9 51.3556 42.9 51.9556 42.9L49.9556 46.7Z" fill="#49A986"/>
<path d="M48.5556 21.9C49.4392 21.9 50.1556 21.1836 50.1556 20.2999C50.1556 19.4163 49.4392 18.7 48.5556 18.7C47.6719 18.7 46.9556 19.4163 46.9556 20.2999C46.9556 21.1836 47.6719 21.9 48.5556 21.9Z" fill="#49A986"/>
<path d="M90.6555 41.8C90.5555 41.8 85.6555 39.9 83.2555 35.9V32.2C85.9555 34.9 89.0555 36.2 89.2555 36.3C89.4555 36.4 89.6555 36.4 89.8555 36.4C90.4555 36.4 91.0555 36 91.2555 35.4C91.5555 34.6 91.1555 33.7 90.4555 33.4C90.4555 33.4 85.6555 31.4 83.2555 27.1V24.6C85.2555 26.7 87.3555 27.7 87.4555 27.7C87.6555 27.8 87.8555 27.8 88.1555 27.8C88.7555 27.8 89.2555 27.5 89.5555 26.9C89.9555 26.1 89.5555 25.2 88.8555 24.9C88.8555 24.9 84.9555 23 83.1555 19C83.1555 19 83.1555 18.9 83.0555 18.9L82.9555 18.8L82.8555 18.7L82.7555 18.6L82.6555 18.5L82.5555 18.4C82.5555 18.4 82.4555 18.3 82.3555 18.3C82.3555 18.3 82.2555 18.3 82.2555 18.2C82.1555 18.2 82.1555 18.2 82.0555 18.1H81.9555C81.8555 18.1 81.8555 18.1 81.7555 18.1H81.6555H81.5555C81.4555 18.1 81.4555 18.1 81.3555 18.1H81.2555C81.1555 18.1 81.1555 18.1 81.0555 18.2H80.9555C80.8555 18.2 80.8555 18.3 80.7555 18.3L80.6555 18.4L80.5555 18.5L80.4555 18.6L80.3555 18.7L80.2555 18.8C80.2555 18.8 80.2555 18.9 80.1555 18.9C78.4555 22.9 74.5555 24.8 74.4555 24.8C73.7555 25.1 73.3555 26 73.6555 26.8C73.4555 26.7 70.9555 25.6 69.6555 23.4C70.5555 24.1 71.2555 24.5 71.3555 24.5C71.5555 24.6 71.7555 24.6 72.0555 24.6C72.6555 24.6 73.1555 24.3 73.4555 23.7C73.8555 22.9 73.4555 22 72.7555 21.7C72.7555 21.7 70.5555 20.6 69.6555 18.4C69.6555 18.4 69.6555 18.3 69.5555 18.3C69.5555 18.2 69.4555 18.2 69.4555 18.2L69.3555 18.1L69.2555 18L69.1555 17.9L69.0555 17.8L68.9555 17.7C68.9555 17.7 68.8555 17.7 68.8555 17.6C68.7555 17.6 68.7555 17.6 68.6555 17.5H68.5555C68.4555 17.5 68.4555 17.5 68.3555 17.5H68.2555H68.1555C68.0555 17.5 68.0555 17.5 67.9555 17.5H67.8555C67.7555 17.5 67.7555 17.5 67.6555 17.6H67.5555C67.4555 17.6 67.4555 17.7 67.3555 17.7L67.2555 17.8L67.1555 17.9L67.0555 18L66.9555 18.1L66.8555 18.2C66.8555 18.2 66.8555 18.3 66.7555 18.3C65.7555 20.5 63.6555 21.6 63.5555 21.6C62.7555 22 62.4555 22.9 62.8555 23.6C63.1555 24.2 63.6555 24.5 64.2555 24.5C64.4555 24.5 64.6555 24.5 64.9555 24.4C65.0555 24.4 65.7555 24 66.6555 23.3C65.3555 25.6 62.7555 26.7 62.6555 26.7C61.8555 27 61.4555 27.9 61.8555 28.7C62.0555 29.3 62.6555 29.7 63.2555 29.7C63.4555 29.7 63.6555 29.7 63.8555 29.6C63.9555 29.6 65.2555 29 66.6555 27.9V28.8C65.2555 30.9 62.5555 32 62.5555 32C61.7555 32.3 61.3555 33.2 61.6555 34C61.8555 34.6 62.4555 35 63.0555 35C63.2555 35 63.4555 35 63.5555 34.9C63.6555 34.9 65.0555 34.3 66.5555 33.2V36.6C66.5555 37.4 67.2555 38.1 68.0555 38.1C68.8555 38.1 69.5555 37.4 69.5555 36.6V33.2C70.3555 33.8 71.1555 34.3 71.7555 34.5C72.0555 34.8 72.0555 35.1 72.1555 35.4C72.3555 36 72.9555 36.4 73.5555 36.4C73.7555 36.4 73.9555 36.4 74.1555 36.3C74.3555 36.2 77.4555 34.9 80.1555 32.2V35.9C77.7555 39.9 72.8555 41.8 72.7555 41.8C71.9555 42.1 71.5555 43 71.8555 43.8C72.0555 44.4 72.6555 44.8 73.2555 44.8C73.4555 44.8 73.6555 44.8 73.7555 44.7C73.9555 44.6 77.2555 43.4 80.0555 40.7V48.4C80.0555 49.2 80.7555 49.9 81.5555 49.9C82.3555 49.9 83.0555 49.2 83.0555 48.4V40.7C85.9555 43.4 89.1555 44.6 89.3555 44.7C89.5555 44.8 89.7555 44.8 89.8555 44.8C90.4555 44.8 91.0555 44.4 91.2555 43.8C91.8555 43 91.4555 42.1 90.6555 41.8ZM80.1555 27.2C78.7555 29.8 76.3555 31.6 74.6555 32.6C74.4555 32.4 74.2555 32.2 73.9555 32.1C73.9555 32.1 71.2555 31 69.8555 28.9V28.2C71.2555 29.3 72.5555 29.9 72.6555 29.9C72.8555 30 73.0555 30 73.2555 30C73.8555 30 74.4555 29.6 74.6555 29C74.8555 28.6 74.7555 28.2 74.6555 27.8C74.8555 27.9 75.0555 27.9 75.2555 27.9C75.4555 27.9 75.6555 27.9 75.9555 27.8C76.0555 27.7 78.1555 26.7 80.1555 24.7V27.2Z" fill="#49A986"/>
<path d="M1.45554 44.5C0.655537 44.8 0.255537 45.7 0.555537 46.5C0.755537 47.1 1.35554 47.5 1.95554 47.5C2.15554 47.5 2.35554 47.5 2.45554 47.4C2.65554 47.3 5.85554 46.1 8.75554 43.4V51.1C8.75554 51.9 9.45554 52.6 10.2555 52.6C11.0555 52.6 11.7555 51.9 11.7555 51.1V43.4C14.6555 46.1 17.8555 47.3 18.0555 47.4C18.2555 47.5 18.4555 47.5 18.5555 47.5C19.1555 47.5 19.7555 47.1 19.9555 46.5C20.2555 45.7 19.8555 44.8 19.0555 44.5C18.9555 44.5 14.0555 42.6 11.6555 38.6V35C14.3555 37.7 17.4555 39 17.6555 39.1C17.8555 39.2 18.0555 39.2 18.2555 39.2C18.8555 39.2 19.4555 38.8 19.6555 38.2C19.9555 37.4 19.5555 36.5 18.8555 36.2C18.8555 36.2 14.0555 34.2 11.7555 30V27.5C13.7555 29.6 15.8555 30.5 15.9555 30.6C16.1555 30.7 16.3555 30.7 16.6555 30.7C17.2555 30.7 17.7555 30.4 18.0555 29.8C18.4555 29 18.0555 28.1 17.3555 27.8C17.3555 27.8 13.4555 25.9 11.7555 21.9C11.7555 21.9 11.7555 21.8 11.6555 21.8C11.6555 21.7 11.5555 21.7 11.5555 21.7L11.4555 21.6L11.3555 21.5L11.2555 21.4L11.1555 21.3C11.1555 21.3 11.0555 21.2 10.9555 21.2H10.8555C10.7555 21.2 10.7555 21.2 10.6555 21.1H10.5555C10.4555 21.1 10.4555 21.1 10.3555 21.1H10.2555H10.1555C10.0555 21.1 10.0555 21.1 9.95554 21.1H9.85554C9.75554 21.1 9.75554 21.1 9.65554 21.2H9.55554C9.45554 21.2 9.45554 21.3 9.35554 21.3L9.25554 21.4L9.15554 21.5L9.05554 21.6L8.95554 21.7L8.85554 21.8C8.85554 21.8 8.85554 21.9 8.75554 21.9C7.25554 25.9 3.35554 27.8 3.35554 27.8C2.55554 28.2 2.25554 29.1 2.65554 29.8C2.85554 30.4 3.45554 30.8 3.95554 30.8C4.15554 30.8 4.35554 30.8 4.65554 30.7C4.75554 30.6 6.85554 29.7 8.85554 27.6V30.1C6.55554 34.3 1.75554 36.3 1.75554 36.3C0.955537 36.6 0.555537 37.5 0.955537 38.3C1.15554 38.9 1.75554 39.3 2.35554 39.3C2.55554 39.3 2.75554 39.3 2.95554 39.2C3.15554 39.1 6.15554 37.9 8.95554 35.1V38.7C6.45554 42.6 1.55554 44.5 1.45554 44.5Z" fill="#49A986"/>
<path d="M53.7556 8.9L58.7556 3.7L71.1556 16.5C71.6556 17 72.3556 17.1 72.9556 16.8L81.1556 12.4L88.2556 16.8C88.5556 17 88.7556 17 89.0556 17C89.5556 17 90.0556 16.7 90.3556 16.3C90.7556 15.6 90.5556 14.6 89.8556 14.2L82.0556 9.3C81.5556 9 80.9556 9 80.5556 9.3L72.6556 13.6L59.8556 0.5C59.5556 0.2 59.1556 0 58.7556 0C58.3556 0 57.9556 0.2 57.6556 0.5L51.5556 6.8C50.9556 7.4 50.9556 8.4 51.5556 9C52.1556 9.6 53.1556 9.5 53.7556 8.9Z" fill="#49A986"/>
<path d="M2.25556 20.2C2.45556 20.2 2.55556 20.2 2.75556 20.1L12.6556 16.9C12.9556 16.8 13.2556 16.6 13.4556 16.3L17.0556 10.8L26.8556 19C27.3556 19.4 28.0556 19.5 28.6556 19.1L32.2556 17H33.2556C34.0556 17 34.7556 16.3 34.7556 15.5C34.7556 14.7 34.0556 14 33.2556 14H31.7556C31.4556 14 31.1556 14.1 30.9556 14.2L27.9556 16L17.6556 7.4C17.3556 7.1 16.8556 7 16.4556 7.1C16.0556 7.2 15.6556 7.4 15.3556 7.8L11.0556 14.3L1.75556 17.3C0.955557 17.6 0.555557 18.4 0.755557 19.2C1.05556 19.8 1.65556 20.2 2.25556 20.2Z" fill="#49A986"/>
<path d="M74.2555 58.9C73.6555 58.9 72.9555 59.2 72.2555 59.5C72.4555 58.3 72.7555 57.5 72.7555 57.5C73.0555 56.7 72.5555 55.8 71.7555 55.6C70.9555 55.3 70.0555 55.8 69.8555 56.6C69.8555 56.7 69.5555 57.5 69.3555 58.6C68.9555 58.2 68.4555 57.8 68.0555 57.6C67.2555 57.3 66.3555 57.7 66.0555 58.5C65.7555 59.3 66.1555 60.2 66.9555 60.5C67.3555 60.7 68.3555 62.2 69.0555 63.6C69.0555 63.7 69.1555 63.7 69.1555 63.8C69.1555 63.9 69.2555 63.9 69.2555 64C69.2555 64 69.2555 64 69.3555 64.1C69.4555 64.1 69.4555 64.2 69.5555 64.2C69.5555 64.2 69.5555 64.2 69.6555 64.2C69.7555 64.2 69.7555 64.3 69.8555 64.3C69.8555 64.3 69.8555 64.3 69.9555 64.3C70.0555 64.3 70.0555 64.3 70.1555 64.4H70.2555C70.3555 64.4 70.4555 64.4 70.5555 64.4C70.6555 64.4 70.7555 64.4 70.8555 64.4C70.9555 64.4 71.0555 64.4 71.1555 64.3C71.1555 64.3 71.2555 64.3 71.2555 64.2C71.3555 64.2 71.3555 64.1 71.4555 64.1L71.5555 64L71.6555 63.9L71.7555 63.8L71.8555 63.7C71.8555 63.7 71.8555 63.6 71.9555 63.6C71.9555 63.6 71.9555 63.5 72.0555 63.5C73.7555 62 74.6555 61.9 74.7555 61.9C75.5555 61.8 76.2555 61.1 76.1555 60.2C75.8555 59.5 75.0555 58.9 74.2555 58.9Z" fill="#49A986"/>
<path d="M12.3555 61.8C11.9555 62 11.5555 62.4 11.2555 62.8C11.0555 61.3 10.7555 60.2 10.7555 60.2C10.5555 59.4 9.75552 58.9 8.85552 59.1C8.05552 59.3 7.55552 60.1 7.75552 61C7.75552 61 8.05552 62.4 8.35552 64.3C7.65552 63.9 7.05552 63.6 6.35552 63.5C5.55552 63.4 4.75552 64 4.65552 64.9C4.55552 65.7 5.15552 66.5 6.05552 66.6C6.05552 66.6 6.85552 66.7 8.65552 68.7V68.8C8.65552 68.8 8.65552 68.9 8.75552 68.9C8.75552 68.9 8.75552 69 8.85552 69C8.85552 69 8.85552 69.1 8.95552 69.1L9.05552 69.2L9.15552 69.3L9.25552 69.4L9.35552 69.5C9.35552 69.5 9.45552 69.5 9.45552 69.6C9.45552 69.6 9.55552 69.7 9.65552 69.7H9.75552H9.85552C9.95552 69.7 10.0555 69.7 10.1555 69.7C10.2555 69.7 10.3555 69.7 10.4555 69.7H10.5555C10.6555 69.7 10.6555 69.7 10.7555 69.6H10.8555C10.9555 69.6 10.9555 69.5 11.0555 69.5C11.0555 69.5 11.0555 69.5 11.1555 69.5C11.2555 69.4 11.2555 69.4 11.3555 69.3C11.3555 69.2 11.4555 69.2 11.4555 69.1C11.4555 69.1 11.4555 69 11.5555 69C11.5555 68.9 11.6555 68.9 11.6555 68.8V68.7C12.3555 66.8 13.3555 64.8 13.8555 64.5C14.5555 64.1 14.8555 63.2 14.4555 62.4C14.0555 61.7 13.0555 61.4 12.3555 61.8Z" fill="#49A986"/>
<path d="M70.4555 72.1C69.8555 70.9 68.9555 69.9 66.3555 69.9C63.4555 69.9 62.0555 73 61.7555 74.8C61.6555 75.2 61.7555 75.7 62.0555 76.1C62.3555 76.5 62.7555 76.7 63.2555 76.7H72.2555C72.6555 76.7 73.0555 76.5 73.3555 76.2C73.6555 75.9 73.7555 75.5 73.7555 75.1C73.7555 73.9 72.7555 72.2 70.4555 72.1Z" fill="#49A986"/>
<path d="M24.2556 75.2C24.0556 74.8 23.6556 74.5 23.2556 74.4L20.8556 73.8C20.2556 73.7 19.7556 73.8 19.3556 74.3L17.6556 76.2C17.2556 76.7 17.1556 77.3 17.4556 77.9C17.6556 78.5 18.2556 78.8 18.8556 78.8H23.6556C24.4556 78.8 25.1556 78.1 25.1556 77.3C25.1556 77 25.0556 76.8 24.9556 76.5L24.2556 75.2Z" fill="#49A986"/>
<path d="M88.0555 64.3C87.8555 63.9 87.4555 63.6 87.0555 63.5L84.5555 62.8C83.9555 62.7 83.4555 62.8 83.0555 63.3L81.3555 65.2C80.9555 65.7 80.8555 66.3 81.1555 66.9C81.3555 67.5 81.9555 67.8 82.5555 67.8H87.3555C88.1555 67.8 88.8555 67.1 88.8555 66.3C88.8555 66 88.7555 65.8 88.6555 65.5L88.0555 64.3Z" fill="#49A986"/>
<path d="M25.5556 57C26.3556 56.9 26.9556 56.1 26.8556 55.3C26.7556 54.5 25.9556 53.9 25.1556 54C25.0556 54 17.9556 54.9 13.6556 54.9H1.95557C1.15557 54.9 0.455566 55.6 0.455566 56.4C0.455566 57.2 1.15557 57.9 1.95557 57.9H13.6556C18.2556 57.9 25.2556 57 25.5556 57Z" fill="#49A986"/>
<path d="M88.9556 52.8C82.3556 53.9 76.9556 52.9 76.5556 52.8C69.8556 51.1 57.1556 51.1 56.4556 51.1C55.6556 51.1 54.9556 51.8 54.9556 52.6C54.9556 53.4 55.6556 54.1 56.4556 54.1C56.6556 54.1 69.4556 54.1 75.8556 55.7C76.0556 55.7 78.6556 56.3 82.5556 56.3C84.5556 56.3 86.8556 56.2 89.3556 55.8C90.1556 55.7 90.7556 54.9 90.6556 54C90.5556 53.2 89.7556 52.6 88.9556 52.8Z" fill="#49A986"/>
</svg>
